<?xml version="1.0" encoding="utf-8"?>
<!-- Svg Vector Icons : http://www.onlinewebfonts.com/icon -->
<!DOCTYPE svg PUBLIC "-//W3C//DTD SVG 1.1//EN" "http://www.w3.org/Graphics/SVG/1.1/DTD/svg11.dtd">
<svg version="1.1" xmlns="http://www.w3.org/2000/svg" xmlns:xlink="http://www.w3.org/1999/xlink" x="0px" y="0px" viewBox="0 0 1000 1000" enable-background="new 0 0 1000 1000" xml:space="preserve">
<metadata> Svg Vector Icons : http://www.onlinewebfonts.com/icon </metadata>
<g><path d="M701.8,568.6c28.8-41.7,43.2-88,43.2-138.6c0-14.2-1.5-29.5-4.4-45.9L587.5,658.6C634.9,640.4,673,610.4,701.8,568.6z"/><path d="M724.2,190.5c0.4-0.7,0.5-2.4,0.5-4.9c0-6.2-2.9-11.1-8.8-14.8c-1.1-0.7-4.6-2.8-10.7-6.3c-6-3.5-11.8-6.8-17.2-10.1c-5.5-3.3-11.5-6.7-18-10.1c-6.6-3.5-12.2-6.3-16.9-8.5c-4.7-2.2-8-3.3-9.8-3.3c-6.6,0-11.7,2.9-15.3,8.8l-29.5,53c-33.2-6.2-66-9.3-98.4-9.3c-98.1,0-188.5,24.8-271.3,74.4C146,309,76.7,376.6,20.9,462.3C13.6,473.6,10,486.2,10,500c0,13.9,3.6,26.4,10.9,37.7c32.1,49.9,70.1,94.6,114,134c43.9,39.4,92,70.9,144.1,94.6c-16,27.3-24.1,43.2-24.1,47.6c0,6.6,2.9,11.7,8.8,15.3c44.5,25.5,68.9,38.3,73.3,38.3c6.6,0,11.7-2.9,15.3-8.8l26.8-48.7C417.8,741.2,475.4,637.8,552,500C628.5,362.2,685.9,259,724.2,190.5z M313.5,705.1C218.7,662.4,140.9,594.1,80,500c55.4-86,124.9-150.4,208.4-193c-22.2,37.9-33.4,78.9-33.4,123c0,39,8.9,76,26.8,111c17.9,35,42.7,64,74.4,86.9L313.5,705.1z M518.6,308.6c-5.1,5.1-11.3,7.7-18.6,7.7c-31.4,0-58.2,11.1-80.4,33.4c-22.2,22.2-33.4,49-33.4,80.4c0,7.3-2.6,13.5-7.7,18.6c-5.1,5.1-11.3,7.7-18.6,7.7c-7.3,0-13.5-2.6-18.6-7.7c-5.1-5.1-7.7-11.3-7.7-18.6c0-45.6,16.3-84.7,48.9-117.3c32.6-32.6,71.7-48.9,117.3-48.9c7.3,0,13.5,2.6,18.6,7.7c5.1,5.1,7.7,11.3,7.7,18.6C526.2,297.3,523.7,303.5,518.6,308.6z"/><path d="M979.1,462.3c-20.8-34.6-47.1-68.2-79-100.6c-31.9-32.4-65.2-60.3-99.8-83.7l-34.5,61.3C826.7,381.1,878.1,434.7,920,500c-44.1,68.5-99.1,124.5-164.9,167.9c-65.8,43.4-137.4,68.4-214.7,74.9L500,815c80.9,0,157.4-17.3,229.4-52c72-34.6,135.4-83.3,190-146c25.5-29.5,45.4-56,59.6-79.3c7.3-12.4,10.9-25,10.9-37.7C990,487.2,986.4,474.7,979.1,462.3z"/></g>
</svg>