<?xml version="1.0" encoding="utf-8"?>
<!-- Svg Vector Icons : http://www.onlinewebfonts.com/icon -->
<!DOCTYPE svg PUBLIC "-//W3C//DTD SVG 1.1//EN" "http://www.w3.org/Graphics/SVG/1.1/DTD/svg11.dtd">
<svg version="1.1" xmlns="http://www.w3.org/2000/svg" xmlns:xlink="http://www.w3.org/1999/xlink" x="0px" y="0px" viewBox="0 0 1000 1000" enable-background="new 0 0 1000 1000" xml:space="preserve">
<metadata> Svg Vector Icons : http://www.onlinewebfonts.com/icon </metadata>
<g><path d="M919.9,500c-55.2-85.8-124.6-150.3-208.3-193c22.4,37.7,33.3,78.7,33.3,123c0,67.2-24.1,125.2-72.2,173.3c-47.6,47.6-105.5,71.6-172.8,71.6s-125.2-24.1-173.3-71.6c-47.6-48.1-71.6-106.1-71.6-173.3c0-44.3,10.9-85.3,33.3-123c-83.6,42.6-153.1,107.2-208.3,193c48.7,74.9,109.3,134.5,182.1,178.8c73.3,44.3,152.5,66.2,237.8,66.2c85.3,0,164.6-21.9,237.3-66.2C810.5,634.5,871.2,574.9,919.9,500L919.9,500z M500,263.8c-45.4,0-84.7,16.4-117.5,49.2c-32.3,32.3-48.7,71.6-48.7,117c0,14.8,11.5,26.2,26.2,26.2c14.8,0,26.2-11.5,26.2-26.2c0-31.2,10.9-58,33.3-80.4c22.4-22.4,49.2-33.3,80.4-33.3c14.8,0,26.2-11.5,26.2-26.2C526.2,275.3,514.8,263.8,500,263.8L500,263.8z M978.9,537.7c-50.8,83.7-119.7,150.9-206.1,201.7C687,789.8,595.7,814.9,500,814.9c-95.7,0-187-25.1-273.4-76C140.8,688.1,71.9,621.4,21.1,537.7C6.3,512,6.3,488,21.1,462.3c50.8-83.6,119.7-150.3,205.6-201.2c86.4-50.8,177.7-76,273.4-76c95.7,0,187,25.1,272.8,76c86.4,50.8,155.3,117.5,206.1,201.2C993.7,488,993.7,512,978.9,537.7z"/></g>
</svg>